<?xml version="1.0" encoding="UTF-8"?>
<svg width="75px" height="30px" viewBox="0 0 75 30" version="1.1" xmlns="http://www.w3.org/2000/svg" xmlns:xlink="http://www.w3.org/1999/xlink">
    <!-- Generator: Sketch 58 (84663) - https://sketch.com -->
    <title>Shape</title>
    <desc>Created with Sketch.</desc>
    <g id="Symbols" stroke="none" stroke-width="1" fill="none" fill-rule="evenodd">
        <g id="Atom/logo/color" transform="translate(0.000000, -2.000000)" fill="#29175D" fill-rule="nonzero">
            <g id="Bynk-logo-black" transform="translate(-0.000000, 2.000000)">
                <path d="M71.3263621,23.0362759 C73.0134133,23.0362759 74.413141,21.6365482 74.413141,19.949497 C74.413141,18.2624458 73.0134133,16.8621986 71.3263621,16.8621986 C69.639311,16.8621986 68.2390637,18.2650437 68.2390637,19.949497 C68.2390637,21.6339503 69.639311,23.0362759 71.3263621,23.0362759 Z M57.4704087,15.7134243 L57.2194553,15.7134243 L57.2194553,22.7131019 L52.3728852,22.7131019 L52.3728852,0.0270177582 L57.2189358,0.0270177582 L57.2189358,12.2317705 L57.6132911,12.2317705 L62.2800893,5.6986687 L67.9158897,5.6986687 L62.3164593,12.9498193 L60.8096997,11.944447 L60.4148248,12.3034714 L61.3095283,13.4163952 L67.9865516,22.7131019 L62.2089079,22.7131019 L57.4704087,15.7134243 Z M50.5782825,11.0112952 L50.5782825,22.7131019 L45.768602,22.7131019 L45.768602,11.9085965 C45.768602,10.3649473 44.9788521,9.28839353 43.2201,9.28839353 C41.7133404,9.28839353 39.9893996,10.2236236 39.9893996,13.1290718 L39.9893996,22.7131019 L35.143349,22.7131019 L35.143349,5.6986687 L39.9893996,5.6986687 L39.0198777,9.50349646 L39.5586742,9.50349646 C40.0262892,8.21132021 42.0713257,5.26794328 45.912004,5.26794328 C49.1068539,5.26794328 50.5782825,7.7805948 50.5782825,11.0112952 L50.5782825,11.0112952 Z M34.0662757,5.6986687 C32.7740994,10.1856949 29.6499114,20.1645999 28.6107668,23.5387023 C27.7134655,26.4103782 24.090488,30.5383799 17.303835,28.8513288 L18.5243103,25.1540525 C21.1086628,25.9079518 23.0471869,25.1540525 23.8727873,23.2160479 L24.2671426,22.0314231 L22.7572656,22.0314231 L16.5135656,5.6986687 L21.6464201,5.6986687 L25.8461227,18.1902253 L26.0258948,18.6578403 L26.5641716,18.4780683 L26.1692967,16.4319927 L29.0051222,5.69918827 L34.0662757,5.6986687 Z M12.2442402,16.0724487 C12.2442402,13.630459 8.29549092,13.4163952 4.8496876,12.4468734 L4.8496876,18.4775488 L9.44426522,18.4775488 C10.5187407,18.4775488 12.2416423,17.9392719 12.2416423,16.0724487 L12.2442402,16.0724487 Z M4.84708974,4.2630905 L4.84708974,8.53449417 C8.61606701,10.0412538 11.1650886,8.60619514 11.1650886,6.66767099 C11.1650886,4.80136738 9.54973839,4.2630905 8.75998853,4.2630905 L4.84708974,4.2630905 Z M17.1978423,17.0061201 C17.1978423,20.0570485 14.7927422,22.7131019 10.3394882,22.7131019 L-1.13686838e-13,22.7131019 L-1.13686838e-13,0.0270177582 L9.65728985,0.0270177582 C13.6418896,0.0270177582 16.0828402,2.68359079 16.0828402,6.02184265 C16.0828402,7.49327133 15.2572398,9.21669256 14.216017,10.0422929 L12.6365173,9.50349646 L12.2774928,10.1498444 C14.5391909,11.0471457 17.1978423,13.0932213 17.1978423,17.0061201 Z" id="Shape"></path>
            </g>
        </g>
    </g>
</svg>